<?xml version="1.0" encoding="UTF-8" standalone="no"?>
<!DOCTYPE svg PUBLIC "-//W3C//DTD SVG 1.1//EN"
 "http://www.w3.org/Graphics/SVG/1.1/DTD/svg11.dtd">
<!-- Generated by graphviz version 12.2.1 (20241206.2353)
 -->
<!-- Pages: 1 -->
<svg width="1010pt" height="326pt"
 viewBox="0.00 0.00 1009.75 325.88" xmlns="http://www.w3.org/2000/svg" xmlns:xlink="http://www.w3.org/1999/xlink">
<g id="graph0" class="graph" transform="scale(1 1) rotate(0) translate(4 321.88)">
<polygon fill="#ffffff" stroke="none" points="-4,4 -4,-321.88 1005.75,-321.88 1005.75,4 -4,4"/>
<!-- GAP26_J1 -->
<g id="node1" class="node">
<title>GAP26_J1</title>
<polygon fill="#ffffff" stroke="black" points="132.25,-243.75 0,-243.75 0,-125 132.25,-125 132.25,-243.75"/>
<polygon fill="none" stroke="black" points="0,-220 0,-243.75 132.25,-243.75 132.25,-220 0,-220"/>
<text text-anchor="start" x="33.12" y="-226.45" font-family="arial" font-size="14.00">GAP26_J1</text>
<polygon fill="none" stroke="black" points="0,-196.25 0,-220 74.38,-220 74.38,-196.25 0,-196.25"/>
<text text-anchor="start" x="13.94" y="-202.7" font-family="arial" font-size="14.00">Circular</text>
<polygon fill="none" stroke="black" points="74.38,-196.25 74.38,-220 132.25,-220 132.25,-196.25 74.38,-196.25"/>
<text text-anchor="start" x="88.31" y="-202.7" font-family="arial" font-size="14.00">3&#45;pin</text>
<polygon fill="none" stroke="black" points="0,-172.5 0,-196.25 116.75,-196.25 116.75,-172.5 0,-172.5"/>
<text text-anchor="start" x="11.12" y="-178.95" font-family="arial" font-size="14.00">+14VDC_HEAT</text>
<polygon fill="none" stroke="black" points="116.75,-172.5 116.75,-196.25 132.25,-196.25 132.25,-172.5 116.75,-172.5"/>
<text text-anchor="start" x="120.75" y="-178.95" font-family="arial" font-size="14.00">1</text>
<polygon fill="none" stroke="black" points="0,-148.75 0,-172.5 116.75,-172.5 116.75,-148.75 0,-148.75"/>
<text text-anchor="start" x="43" y="-155.2" font-family="arial" font-size="14.00">GND</text>
<polygon fill="none" stroke="black" points="116.75,-148.75 116.75,-172.5 132.25,-172.5 132.25,-148.75 116.75,-148.75"/>
<text text-anchor="start" x="120.75" y="-155.2" font-family="arial" font-size="14.00">2</text>
<polygon fill="none" stroke="black" points="0,-125 0,-148.75 116.75,-148.75 116.75,-125 0,-125"/>
<text text-anchor="start" x="4" y="-131.45" font-family="arial" font-size="14.00">PTH_INDICATOR</text>
<polygon fill="none" stroke="black" points="116.75,-125 116.75,-148.75 132.25,-148.75 132.25,-125 116.75,-125"/>
<text text-anchor="start" x="120.75" y="-131.45" font-family="arial" font-size="14.00">3</text>
</g>
<!-- GAP26_Heater_Power -->
<g id="node5" class="node">
<title>GAP26_Heater_Power</title>
<polygon fill="#ffffff" stroke="black" points="688.38,-275.62 305.88,-275.62 305.88,-137.12 688.38,-137.12 688.38,-275.62"/>
<polygon fill="none" stroke="black" points="305.88,-251.88 305.88,-275.62 688.38,-275.62 688.38,-251.88 305.88,-251.88"/>
<text text-anchor="start" x="428.13" y="-258.32" font-family="arial" font-size="14.00">GAP26_Heater_Power</text>
<polygon fill="none" stroke="black" points="305.88,-228.12 305.88,-251.88 434.88,-251.88 434.88,-228.12 305.88,-228.12"/>
<text text-anchor="start" x="352.75" y="-234.57" font-family="arial" font-size="14.00">Tefzel</text>
<polygon fill="none" stroke="black" points="434.88,-228.12 434.88,-251.88 542.88,-251.88 542.88,-228.12 434.88,-228.12"/>
<text text-anchor="start" x="481.75" y="-234.57" font-family="arial" font-size="14.00">2x</text>
<polygon fill="none" stroke="black" points="542.88,-228.12 542.88,-251.88 688.38,-251.88 688.38,-228.12 542.88,-228.12"/>
<text text-anchor="start" x="589.75" y="-234.57" font-family="arial" font-size="14.00">12 AWG</text>
<text text-anchor="start" x="393.75" y="-212.82" font-family="arial" font-size="14.00"> </text>
<text text-anchor="start" x="307.88" y="-193.07" font-family="arial" font-size="14.00">GAP26_J1:1:+14VDC_HEAT</text>
<text text-anchor="start" x="487.38" y="-193.07" font-family="arial" font-size="14.00"> &#160;&#160;&#160;&#160;1:RD &#160;&#160;&#160;</text>
<text text-anchor="start" x="573.88" y="-193.07" font-family="arial" font-size="14.00">CB_10A:2:OUT</text>
<polygon fill="#000000" stroke="none" points="305.88,-186.62 305.88,-188.62 688.38,-188.62 688.38,-186.62 305.88,-186.62"/>
<polygon fill="#ff0000" stroke="none" points="305.88,-184.62 305.88,-186.62 688.38,-186.62 688.38,-184.62 305.88,-184.62"/>
<polygon fill="#000000" stroke="none" points="305.88,-182.62 305.88,-184.62 688.38,-184.62 688.38,-182.62 305.88,-182.62"/>
<text text-anchor="start" x="339.75" y="-167.32" font-family="arial" font-size="14.00">GAP26_J1:2:GND</text>
<text text-anchor="start" x="488.12" y="-167.32" font-family="arial" font-size="14.00"> &#160;&#160;&#160;&#160;2:BK &#160;&#160;&#160;</text>
<text text-anchor="start" x="555.88" y="-167.32" font-family="arial" font-size="14.00">GND_BLOCK:1:GND</text>
<polygon fill="#000000" stroke="none" points="305.88,-160.88 305.88,-162.88 688.38,-162.88 688.38,-160.88 305.88,-160.88"/>
<polygon fill="#000000" stroke="none" points="305.88,-158.88 305.88,-160.88 688.38,-160.88 688.38,-158.88 305.88,-158.88"/>
<polygon fill="#000000" stroke="none" points="305.88,-156.88 305.88,-158.88 688.38,-158.88 688.38,-156.88 305.88,-156.88"/>
<text text-anchor="start" x="393.75" y="-141.57" font-family="arial" font-size="14.00"> </text>
</g>
<!-- GAP26_J1&#45;&#45;GAP26_Heater_Power -->
<g id="edge1" class="edge">
<title>GAP26_J1:e&#45;&#45;GAP26_Heater_Power:w</title>
<path fill="none" stroke="#000000" stroke-width="2" d="M132.25,-182.38C209.1,-182.38 228.28,-183.63 304.88,-183.63"/>
<path fill="none" stroke="#ff0000" stroke-width="2" d="M132.25,-184.38C208.97,-184.37 228.15,-185.62 304.88,-185.62"/>
<path fill="none" stroke="#000000" stroke-width="2" d="M132.25,-186.37C208.84,-186.37 228.02,-187.62 304.88,-187.62"/>
</g>
<!-- GAP26_J1&#45;&#45;GAP26_Heater_Power -->
<g id="edge3" class="edge">
<title>GAP26_J1:e&#45;&#45;GAP26_Heater_Power:w</title>
<path fill="none" stroke="#000000" stroke-width="2" d="M132.25,-158.63C208.89,-158.63 228.07,-157.88 304.88,-157.88"/>
<path fill="none" stroke="#000000" stroke-width="2" d="M132.25,-160.62C208.97,-160.62 228.15,-159.88 304.88,-159.88"/>
<path fill="none" stroke="#000000" stroke-width="2" d="M132.25,-162.62C209.05,-162.62 228.23,-161.87 304.88,-161.87"/>
</g>
<!-- GAP26_PTH_Indicator -->
<g id="node6" class="node">
<title>GAP26_PTH_Indicator</title>
<polygon fill="#ffffff" stroke="black" points="718,-112.75 276.25,-112.75 276.25,0 718,0 718,-112.75"/>
<polygon fill="none" stroke="black" points="276.25,-89 276.25,-112.75 718,-112.75 718,-89 276.25,-89"/>
<text text-anchor="start" x="428.13" y="-95.45" font-family="arial" font-size="14.00">GAP26_PTH_Indicator</text>
<polygon fill="none" stroke="black" points="276.25,-65.25 276.25,-89 446.5,-89 446.5,-65.25 276.25,-65.25"/>
<text text-anchor="start" x="327.63" y="-71.7" font-family="arial" font-size="14.00">Unshielded</text>
<polygon fill="none" stroke="black" points="446.5,-65.25 446.5,-89 563.5,-89 563.5,-65.25 446.5,-65.25"/>
<text text-anchor="start" x="497.88" y="-71.7" font-family="arial" font-size="14.00">1x</text>
<polygon fill="none" stroke="black" points="563.5,-65.25 563.5,-89 718,-89 718,-65.25 563.5,-65.25"/>
<text text-anchor="start" x="614.88" y="-71.7" font-family="arial" font-size="14.00">22 AWG</text>
<text text-anchor="start" x="371.25" y="-49.95" font-family="arial" font-size="14.00"> </text>
<text text-anchor="start" x="278.25" y="-30.2" font-family="arial" font-size="14.00">GAP26_J1:3:PTH_INDICATOR</text>
<text text-anchor="start" x="472" y="-30.2" font-family="arial" font-size="14.00"> &#160;&#160;&#160;&#160;1:BU &#160;&#160;&#160;</text>
<text text-anchor="start" x="539.75" y="-30.2" font-family="arial" font-size="14.00">GAD27:43:PTH_INDICATOR</text>
<polygon fill="#000000" stroke="none" points="276.25,-23.75 276.25,-25.75 718,-25.75 718,-23.75 276.25,-23.75"/>
<polygon fill="#0066ff" stroke="none" points="276.25,-21.75 276.25,-23.75 718,-23.75 718,-21.75 276.25,-21.75"/>
<polygon fill="#000000" stroke="none" points="276.25,-19.75 276.25,-21.75 718,-21.75 718,-19.75 276.25,-19.75"/>
<text text-anchor="start" x="371.25" y="-4.45" font-family="arial" font-size="14.00"> </text>
</g>
<!-- GAP26_J1&#45;&#45;GAP26_PTH_Indicator -->
<g id="edge5" class="edge">
<title>GAP26_J1:e&#45;&#45;GAP26_PTH_Indicator:w</title>
<path fill="none" stroke="#000000" stroke-width="2" d="M132.25,-134.88C211.94,-137.21 192.62,-23.08 276.25,-20.75"/>
<path fill="none" stroke="#0066ff" stroke-width="2" d="M132.25,-136.88C213.91,-136.88 194.59,-22.75 276.25,-22.75"/>
<path fill="none" stroke="#000000" stroke-width="2" d="M132.25,-138.87C215.88,-136.54 196.56,-22.42 276.25,-24.75"/>
</g>
<!-- CB_10A -->
<g id="node2" class="node">
<title>CB_10A</title>
<polygon fill="#ffffff" stroke="black" points="997.63,-317.88 866.13,-317.88 866.13,-222.88 997.63,-222.88 997.63,-317.88"/>
<polygon fill="none" stroke="black" points="866.13,-294.12 866.13,-317.88 997.63,-317.88 997.63,-294.12 866.13,-294.12"/>
<text text-anchor="start" x="906.75" y="-300.57" font-family="arial" font-size="14.00">CB_10A</text>
<polygon fill="none" stroke="black" points="866.13,-270.38 866.13,-294.12 959.63,-294.12 959.63,-270.38 866.13,-270.38"/>
<text text-anchor="start" x="870.13" y="-276.82" font-family="arial" font-size="14.00">CircuitBreaker</text>
<polygon fill="none" stroke="black" points="959.63,-270.38 959.63,-294.12 997.63,-294.12 997.63,-270.38 959.63,-270.38"/>
<text text-anchor="start" x="963.63" y="-276.82" font-family="arial" font-size="14.00">2&#45;pin</text>
<polygon fill="none" stroke="black" points="866.13,-246.62 866.13,-270.38 921,-270.38 921,-246.62 866.13,-246.62"/>
<text text-anchor="start" x="889.81" y="-253.07" font-family="arial" font-size="14.00">1</text>
<polygon fill="none" stroke="black" points="921,-246.62 921,-270.38 997.63,-270.38 997.63,-246.62 921,-246.62"/>
<text text-anchor="start" x="952.56" y="-253.07" font-family="arial" font-size="14.00">IN</text>
<polygon fill="none" stroke="black" points="866.13,-222.88 866.13,-246.62 921,-246.62 921,-222.88 866.13,-222.88"/>
<text text-anchor="start" x="889.81" y="-229.32" font-family="arial" font-size="14.00">2</text>
<polygon fill="none" stroke="black" points="921,-222.88 921,-246.62 997.63,-246.62 997.63,-222.88 921,-222.88"/>
<text text-anchor="start" x="944.69" y="-229.32" font-family="arial" font-size="14.00">OUT</text>
</g>
<!-- GND_BLOCK -->
<g id="node3" class="node">
<title>GND_BLOCK</title>
<polygon fill="#ffffff" stroke="black" points="997.25,-199 866.5,-199 866.5,-127.75 997.25,-127.75 997.25,-199"/>
<polygon fill="none" stroke="black" points="866.5,-175.25 866.5,-199 997.25,-199 997.25,-175.25 866.5,-175.25"/>
<text text-anchor="start" x="889.5" y="-181.7" font-family="arial" font-size="14.00">GND_BLOCK</text>
<polygon fill="none" stroke="black" points="866.5,-151.5 866.5,-175.25 959.25,-175.25 959.25,-151.5 866.5,-151.5"/>
<text text-anchor="start" x="870.5" y="-157.95" font-family="arial" font-size="14.00">TerminalBlock</text>
<polygon fill="none" stroke="black" points="959.25,-151.5 959.25,-175.25 997.25,-175.25 997.25,-151.5 959.25,-151.5"/>
<text text-anchor="start" x="963.25" y="-157.95" font-family="arial" font-size="14.00">1&#45;pin</text>
<polygon fill="none" stroke="black" points="866.5,-127.75 866.5,-151.5 920.25,-151.5 920.25,-127.75 866.5,-127.75"/>
<text text-anchor="start" x="889.63" y="-134.2" font-family="arial" font-size="14.00">1</text>
<polygon fill="none" stroke="black" points="920.25,-127.75 920.25,-151.5 997.25,-151.5 997.25,-127.75 920.25,-127.75"/>
<text text-anchor="start" x="943.38" y="-134.2" font-family="arial" font-size="14.00">GND</text>
</g>
<!-- GAD27 -->
<g id="node4" class="node">
<title>GAD27</title>
<polygon fill="#ffffff" stroke="black" points="1001.75,-83 862,-83 862,-11.75 1001.75,-11.75 1001.75,-83"/>
<polygon fill="none" stroke="black" points="862,-59.25 862,-83 1001.75,-83 1001.75,-59.25 862,-59.25"/>
<text text-anchor="start" x="909.38" y="-65.7" font-family="arial" font-size="14.00">GAD27</text>
<polygon fill="none" stroke="black" points="862,-35.5 862,-59.25 931.5,-59.25 931.5,-35.5 862,-35.5"/>
<text text-anchor="start" x="882.13" y="-41.95" font-family="arial" font-size="14.00">dsub</text>
<polygon fill="none" stroke="black" points="931.5,-35.5 931.5,-59.25 1001.75,-59.25 1001.75,-35.5 931.5,-35.5"/>
<text text-anchor="start" x="951.63" y="-41.95" font-family="arial" font-size="14.00">1&#45;pin</text>
<polygon fill="none" stroke="black" points="862,-11.75 862,-35.5 885,-35.5 885,-11.75 862,-11.75"/>
<text text-anchor="start" x="866" y="-18.2" font-family="arial" font-size="14.00">43</text>
<polygon fill="none" stroke="black" points="885,-11.75 885,-35.5 1001.75,-35.5 1001.75,-11.75 885,-11.75"/>
<text text-anchor="start" x="889" y="-18.2" font-family="arial" font-size="14.00">PTH_INDICATOR</text>
</g>
<!-- GAP26_Heater_Power&#45;&#45;CB_10A -->
<g id="edge2" class="edge">
<title>GAP26_Heater_Power:e&#45;&#45;CB_10A:w</title>
<path fill="none" stroke="#000000" stroke-width="2" d="M689.38,-183.63C772.41,-185.09 785.95,-234.22 865.13,-232.75"/>
<path fill="none" stroke="#ff0000" stroke-width="2" d="M689.38,-185.62C770.48,-185.62 784.02,-234.75 865.13,-234.75"/>
<path fill="none" stroke="#000000" stroke-width="2" d="M689.38,-187.62C768.55,-186.16 782.09,-235.28 865.13,-236.75"/>
</g>
<!-- GAP26_Heater_Power&#45;&#45;GND_BLOCK -->
<g id="edge4" class="edge">
<title>GAP26_Heater_Power:e&#45;&#45;GND_BLOCK:w</title>
<path fill="none" stroke="#000000" stroke-width="2" d="M689.38,-157.88C766.69,-158.52 785.23,-138.27 865.5,-137.63"/>
<path fill="none" stroke="#000000" stroke-width="2" d="M689.38,-159.88C768.17,-159.87 786.71,-139.62 865.5,-139.62"/>
<path fill="none" stroke="#000000" stroke-width="2" d="M689.38,-161.87C769.64,-161.23 788.18,-140.98 865.5,-141.62"/>
</g>
<!-- GAP26_PTH_Indicator&#45;&#45;GAD27 -->
<g id="edge6" class="edge">
<title>GAP26_PTH_Indicator:e&#45;&#45;GAD27:w</title>
<path fill="none" stroke="#000000" stroke-width="2" d="M718,-20.75C782.11,-20.75 798.11,-21.63 862,-21.63"/>
<path fill="none" stroke="#0066ff" stroke-width="2" d="M718,-22.75C782,-22.75 798,-23.63 862,-23.62"/>
<path fill="none" stroke="#000000" stroke-width="2" d="M718,-24.75C781.89,-24.75 797.89,-25.62 862,-25.62"/>
</g>
</g>
</svg>
