<?xml version="1.0" encoding="UTF-8" standalone="no"?>
<!DOCTYPE svg PUBLIC "-//W3C//DTD SVG 1.1//EN"
 "http://www.w3.org/Graphics/SVG/1.1/DTD/svg11.dtd">
<!-- Generated by graphviz version 12.2.1 (20241206.2353)
 -->
<!-- Pages: 1 -->
<svg width="850pt" height="327pt"
 viewBox="0.00 0.00 850.25 326.88" xmlns="http://www.w3.org/2000/svg" xmlns:xlink="http://www.w3.org/1999/xlink">
<g id="graph0" class="graph" transform="scale(1 1) rotate(0) translate(4 322.88)">
<polygon fill="#ffffff" stroke="none" points="-4,4 -4,-322.88 846.25,-322.88 846.25,4 -4,4"/>
<!-- GDU460_J1 -->
<g id="node1" class="node">
<title>GDU460_J1</title>
<polygon fill="#ffffff" stroke="black" points="83,-211.5 0,-211.5 0,-69 83,-69 83,-211.5"/>
<polygon fill="none" stroke="black" points="0,-187.75 0,-211.5 83,-211.5 83,-187.75 0,-187.75"/>
<text text-anchor="start" x="4" y="-194.2" font-family="arial" font-size="14.00">GDU460_J1</text>
<polygon fill="none" stroke="black" points="0,-164 0,-187.75 43.38,-187.75 43.38,-164 0,-164"/>
<text text-anchor="start" x="4.81" y="-170.45" font-family="arial" font-size="14.00">DB25</text>
<polygon fill="none" stroke="black" points="43.38,-164 43.38,-187.75 83,-187.75 83,-164 43.38,-164"/>
<text text-anchor="start" x="48.19" y="-170.45" font-family="arial" font-size="14.00">4&#45;pin</text>
<polygon fill="none" stroke="black" points="0,-140.25 0,-164 60.62,-164 60.62,-140.25 0,-140.25"/>
<text text-anchor="start" x="14.19" y="-146.7" font-family="arial" font-size="14.00">PWR</text>
<polygon fill="none" stroke="black" points="60.62,-140.25 60.62,-164 83,-164 83,-140.25 60.62,-140.25"/>
<text text-anchor="start" x="68.06" y="-146.7" font-family="arial" font-size="14.00">1</text>
<polygon fill="none" stroke="black" points="0,-116.5 0,-140.25 60.62,-140.25 60.62,-116.5 0,-116.5"/>
<text text-anchor="start" x="14.94" y="-122.95" font-family="arial" font-size="14.00">GND</text>
<polygon fill="none" stroke="black" points="60.62,-116.5 60.62,-140.25 83,-140.25 83,-116.5 60.62,-116.5"/>
<text text-anchor="start" x="68.06" y="-122.95" font-family="arial" font-size="14.00">2</text>
<polygon fill="none" stroke="black" points="0,-92.75 0,-116.5 60.62,-116.5 60.62,-92.75 0,-92.75"/>
<text text-anchor="start" x="7.44" y="-99.2" font-family="arial" font-size="14.00">CAN_H</text>
<polygon fill="none" stroke="black" points="60.62,-92.75 60.62,-116.5 83,-116.5 83,-92.75 60.62,-92.75"/>
<text text-anchor="start" x="68.06" y="-99.2" font-family="arial" font-size="14.00">3</text>
<polygon fill="none" stroke="black" points="0,-69 0,-92.75 60.62,-92.75 60.62,-69 0,-69"/>
<text text-anchor="start" x="8.56" y="-75.45" font-family="arial" font-size="14.00">CAN_L</text>
<polygon fill="none" stroke="black" points="60.62,-69 60.62,-92.75 83,-92.75 83,-69 60.62,-69"/>
<text text-anchor="start" x="68.06" y="-75.45" font-family="arial" font-size="14.00">4</text>
</g>
<!-- GDU460_Power -->
<g id="node5" class="node">
<title>GDU460_Power</title>
<polygon fill="#ffffff" stroke="black" points="561.88,-301.5 232.62,-301.5 232.62,-163 561.88,-163 561.88,-301.5"/>
<polygon fill="none" stroke="black" points="232.62,-277.75 232.62,-301.5 561.88,-301.5 561.88,-277.75 232.62,-277.75"/>
<text text-anchor="start" x="347.75" y="-284.2" font-family="arial" font-size="14.00">GDU460_Power</text>
<polygon fill="none" stroke="black" points="232.62,-254 232.62,-277.75 343.88,-277.75 343.88,-254 232.62,-254"/>
<text text-anchor="start" x="270.62" y="-260.45" font-family="arial" font-size="14.00">Tefzel</text>
<polygon fill="none" stroke="black" points="343.88,-254 343.88,-277.75 434.12,-277.75 434.12,-254 343.88,-254"/>
<text text-anchor="start" x="381.88" y="-260.45" font-family="arial" font-size="14.00">2x</text>
<polygon fill="none" stroke="black" points="434.12,-254 434.12,-277.75 561.88,-277.75 561.88,-254 434.12,-254"/>
<text text-anchor="start" x="472.12" y="-260.45" font-family="arial" font-size="14.00">20 AWG</text>
<text text-anchor="start" x="293.88" y="-238.7" font-family="arial" font-size="14.00"> </text>
<text text-anchor="start" x="234.62" y="-218.95" font-family="arial" font-size="14.00">GDU460_J1:1:PWR</text>
<text text-anchor="start" x="360.88" y="-218.95" font-family="arial" font-size="14.00"> &#160;&#160;&#160;&#160;1:RD &#160;&#160;&#160;</text>
<text text-anchor="start" x="436.5" y="-218.95" font-family="arial" font-size="14.00">PWR_DIST:1:PWR</text>
<polygon fill="#000000" stroke="none" points="232.62,-212.5 232.62,-214.5 561.88,-214.5 561.88,-212.5 232.62,-212.5"/>
<polygon fill="#ff0000" stroke="none" points="232.62,-210.5 232.62,-212.5 561.88,-212.5 561.88,-210.5 232.62,-210.5"/>
<polygon fill="#000000" stroke="none" points="232.62,-208.5 232.62,-210.5 561.88,-210.5 561.88,-208.5 232.62,-208.5"/>
<text text-anchor="start" x="235.38" y="-193.2" font-family="arial" font-size="14.00">GDU460_J1:2:GND</text>
<text text-anchor="start" x="361.62" y="-193.2" font-family="arial" font-size="14.00"> &#160;&#160;&#160;&#160;2:BK &#160;&#160;&#160;</text>
<text text-anchor="start" x="429.38" y="-193.2" font-family="arial" font-size="14.00">GND_BLOCK:1:GND</text>
<polygon fill="#000000" stroke="none" points="232.62,-186.75 232.62,-188.75 561.88,-188.75 561.88,-186.75 232.62,-186.75"/>
<polygon fill="#000000" stroke="none" points="232.62,-184.75 232.62,-186.75 561.88,-186.75 561.88,-184.75 232.62,-184.75"/>
<polygon fill="#000000" stroke="none" points="232.62,-182.75 232.62,-184.75 561.88,-184.75 561.88,-182.75 232.62,-182.75"/>
<text text-anchor="start" x="293.88" y="-167.45" font-family="arial" font-size="14.00"> </text>
</g>
<!-- GDU460_J1&#45;&#45;GDU460_Power -->
<g id="edge1" class="edge">
<title>GDU460_J1:e&#45;&#45;GDU460_Power:w</title>
<path fill="none" stroke="#000000" stroke-width="2" d="M83,-150.13C156.12,-151.91 162.48,-211.29 231.62,-209.5"/>
<path fill="none" stroke="#ff0000" stroke-width="2" d="M83,-152.12C154.13,-152.12 160.49,-211.5 231.62,-211.5"/>
<path fill="none" stroke="#000000" stroke-width="2" d="M83,-154.12C152.14,-152.34 158.5,-211.71 231.62,-213.5"/>
</g>
<!-- GDU460_J1&#45;&#45;GDU460_Power -->
<g id="edge3" class="edge">
<title>GDU460_J1:e&#45;&#45;GDU460_Power:w</title>
<path fill="none" stroke="#000000" stroke-width="2" d="M83,-126.38C155.79,-128.13 162.8,-185.51 231.62,-183.75"/>
<path fill="none" stroke="#000000" stroke-width="2" d="M83,-128.38C153.81,-128.38 160.82,-185.75 231.62,-185.75"/>
<path fill="none" stroke="#000000" stroke-width="2" d="M83,-130.37C151.82,-128.62 158.83,-185.99 231.62,-187.75"/>
</g>
<!-- GDU460_CAN -->
<g id="node6" class="node">
<title>GDU460_CAN</title>
<polygon fill="#ffffff" stroke="black" points="567.5,-138.5 227,-138.5 227,0 567.5,0 567.5,-138.5"/>
<polygon fill="none" stroke="black" points="227,-114.75 227,-138.5 567.5,-138.5 567.5,-114.75 227,-114.75"/>
<text text-anchor="start" x="352.62" y="-121.2" font-family="arial" font-size="14.00">GDU460_CAN</text>
<polygon fill="none" stroke="black" points="227,-91 227,-114.75 353.5,-114.75 353.5,-91 227,-91"/>
<text text-anchor="start" x="264" y="-97.45" font-family="arial" font-size="14.00">Shielded</text>
<polygon fill="none" stroke="black" points="353.5,-91 353.5,-114.75 441.75,-114.75 441.75,-91 353.5,-91"/>
<text text-anchor="start" x="390.5" y="-97.45" font-family="arial" font-size="14.00">2x</text>
<polygon fill="none" stroke="black" points="441.75,-91 441.75,-114.75 567.5,-114.75 567.5,-91 441.75,-91"/>
<text text-anchor="start" x="478.75" y="-97.45" font-family="arial" font-size="14.00">22 AWG</text>
<text text-anchor="start" x="295" y="-75.7" font-family="arial" font-size="14.00"> </text>
<text text-anchor="start" x="229" y="-55.95" font-family="arial" font-size="14.00">GDU460_J1:3:CAN_H</text>
<text text-anchor="start" x="368.75" y="-55.95" font-family="arial" font-size="14.00"> &#160;&#160;&#160;&#160;1:WH &#160;&#160;&#160;</text>
<text text-anchor="start" x="441" y="-55.95" font-family="arial" font-size="14.00">CAN_BUS:1:CAN_H</text>
<polygon fill="#000000" stroke="none" points="227,-49.5 227,-51.5 567.5,-51.5 567.5,-49.5 227,-49.5"/>
<polygon fill="#ffffff" stroke="none" points="227,-47.5 227,-49.5 567.5,-49.5 567.5,-47.5 227,-47.5"/>
<polygon fill="#000000" stroke="none" points="227,-45.5 227,-47.5 567.5,-47.5 567.5,-45.5 227,-45.5"/>
<text text-anchor="start" x="230.12" y="-30.2" font-family="arial" font-size="14.00">GDU460_J1:4:CAN_L</text>
<text text-anchor="start" x="371" y="-30.2" font-family="arial" font-size="14.00"> &#160;&#160;&#160;&#160;2:BU &#160;&#160;&#160;</text>
<text text-anchor="start" x="442.12" y="-30.2" font-family="arial" font-size="14.00">CAN_BUS:2:CAN_L</text>
<polygon fill="#000000" stroke="none" points="227,-23.75 227,-25.75 567.5,-25.75 567.5,-23.75 227,-23.75"/>
<polygon fill="#0066ff" stroke="none" points="227,-21.75 227,-23.75 567.5,-23.75 567.5,-21.75 227,-21.75"/>
<polygon fill="#000000" stroke="none" points="227,-19.75 227,-21.75 567.5,-21.75 567.5,-19.75 227,-19.75"/>
<text text-anchor="start" x="295" y="-4.45" font-family="arial" font-size="14.00"> </text>
</g>
<!-- GDU460_J1&#45;&#45;GDU460_CAN -->
<g id="edge5" class="edge">
<title>GDU460_J1:e&#45;&#45;GDU460_CAN:w</title>
<path fill="none" stroke="#000000" stroke-width="2" d="M83,-102.63C149.7,-104.39 156.32,-48.27 227,-46.5"/>
<path fill="none" stroke="#ffffff" stroke-width="2" d="M83,-104.62C151.69,-104.62 158.31,-48.5 227,-48.5"/>
<path fill="none" stroke="#000000" stroke-width="2" d="M83,-106.62C153.68,-104.86 160.3,-48.73 227,-50.5"/>
</g>
<!-- GDU460_J1&#45;&#45;GDU460_CAN -->
<g id="edge7" class="edge">
<title>GDU460_J1:e&#45;&#45;GDU460_CAN:w</title>
<path fill="none" stroke="#000000" stroke-width="2" d="M83,-78.88C150.03,-80.67 155.99,-22.55 227,-20.75"/>
<path fill="none" stroke="#0066ff" stroke-width="2" d="M83,-80.88C152.02,-80.88 157.98,-22.75 227,-22.75"/>
<path fill="none" stroke="#000000" stroke-width="2" d="M83,-82.87C154.01,-81.08 159.97,-22.95 227,-24.75"/>
</g>
<!-- PWR_DIST -->
<g id="node2" class="node">
<title>PWR_DIST</title>
<polygon fill="#ffffff" stroke="black" points="842.25,-318.88 711.5,-318.88 711.5,-247.62 842.25,-247.62 842.25,-318.88"/>
<polygon fill="none" stroke="black" points="711.5,-295.12 711.5,-318.88 842.25,-318.88 842.25,-295.12 711.5,-295.12"/>
<text text-anchor="start" x="741.62" y="-301.57" font-family="arial" font-size="14.00">PWR_DIST</text>
<polygon fill="none" stroke="black" points="711.5,-271.38 711.5,-295.12 804.25,-295.12 804.25,-271.38 711.5,-271.38"/>
<text text-anchor="start" x="715.5" y="-277.82" font-family="arial" font-size="14.00">TerminalBlock</text>
<polygon fill="none" stroke="black" points="804.25,-271.38 804.25,-295.12 842.25,-295.12 842.25,-271.38 804.25,-271.38"/>
<text text-anchor="start" x="808.25" y="-277.82" font-family="arial" font-size="14.00">1&#45;pin</text>
<polygon fill="none" stroke="black" points="711.5,-247.62 711.5,-271.38 764.5,-271.38 764.5,-247.62 711.5,-247.62"/>
<text text-anchor="start" x="734.25" y="-254.07" font-family="arial" font-size="14.00">1</text>
<polygon fill="none" stroke="black" points="764.5,-247.62 764.5,-271.38 842.25,-271.38 842.25,-247.62 764.5,-247.62"/>
<text text-anchor="start" x="787.25" y="-254.07" font-family="arial" font-size="14.00">PWR</text>
</g>
<!-- GND_BLOCK -->
<g id="node3" class="node">
<title>GND_BLOCK</title>
<polygon fill="#ffffff" stroke="black" points="842.25,-223.88 711.5,-223.88 711.5,-152.62 842.25,-152.62 842.25,-223.88"/>
<polygon fill="none" stroke="black" points="711.5,-200.12 711.5,-223.88 842.25,-223.88 842.25,-200.12 711.5,-200.12"/>
<text text-anchor="start" x="734.5" y="-206.57" font-family="arial" font-size="14.00">GND_BLOCK</text>
<polygon fill="none" stroke="black" points="711.5,-176.38 711.5,-200.12 804.25,-200.12 804.25,-176.38 711.5,-176.38"/>
<text text-anchor="start" x="715.5" y="-182.82" font-family="arial" font-size="14.00">TerminalBlock</text>
<polygon fill="none" stroke="black" points="804.25,-176.38 804.25,-200.12 842.25,-200.12 842.25,-176.38 804.25,-176.38"/>
<text text-anchor="start" x="808.25" y="-182.82" font-family="arial" font-size="14.00">1&#45;pin</text>
<polygon fill="none" stroke="black" points="711.5,-152.62 711.5,-176.38 765.25,-176.38 765.25,-152.62 711.5,-152.62"/>
<text text-anchor="start" x="734.62" y="-159.07" font-family="arial" font-size="14.00">1</text>
<polygon fill="none" stroke="black" points="765.25,-152.62 765.25,-176.38 842.25,-176.38 842.25,-152.62 765.25,-152.62"/>
<text text-anchor="start" x="788.38" y="-159.07" font-family="arial" font-size="14.00">GND</text>
</g>
<!-- CAN_BUS -->
<g id="node4" class="node">
<title>CAN_BUS</title>
<polygon fill="#ffffff" stroke="black" points="842.25,-107.75 711.5,-107.75 711.5,-12.75 842.25,-12.75 842.25,-107.75"/>
<polygon fill="none" stroke="black" points="711.5,-84 711.5,-107.75 842.25,-107.75 842.25,-84 711.5,-84"/>
<text text-anchor="start" x="745" y="-90.45" font-family="arial" font-size="14.00">CAN_BUS</text>
<polygon fill="none" stroke="black" points="711.5,-60.25 711.5,-84 804.25,-84 804.25,-60.25 711.5,-60.25"/>
<text text-anchor="start" x="715.5" y="-66.7" font-family="arial" font-size="14.00">TerminalBlock</text>
<polygon fill="none" stroke="black" points="804.25,-60.25 804.25,-84 842.25,-84 842.25,-60.25 804.25,-60.25"/>
<text text-anchor="start" x="808.25" y="-66.7" font-family="arial" font-size="14.00">2&#45;pin</text>
<polygon fill="none" stroke="black" points="711.5,-36.5 711.5,-60.25 757.75,-60.25 757.75,-36.5 711.5,-36.5"/>
<text text-anchor="start" x="730.88" y="-42.95" font-family="arial" font-size="14.00">1</text>
<polygon fill="none" stroke="black" points="757.75,-36.5 757.75,-60.25 842.25,-60.25 842.25,-36.5 757.75,-36.5"/>
<text text-anchor="start" x="777.12" y="-42.95" font-family="arial" font-size="14.00">CAN_H</text>
<polygon fill="none" stroke="black" points="711.5,-12.75 711.5,-36.5 757.75,-36.5 757.75,-12.75 711.5,-12.75"/>
<text text-anchor="start" x="730.88" y="-19.2" font-family="arial" font-size="14.00">2</text>
<polygon fill="none" stroke="black" points="757.75,-12.75 757.75,-36.5 842.25,-36.5 842.25,-12.75 757.75,-12.75"/>
<text text-anchor="start" x="778.25" y="-19.2" font-family="arial" font-size="14.00">CAN_L</text>
</g>
<!-- GDU460_Power&#45;&#45;PWR_DIST -->
<g id="edge2" class="edge">
<title>GDU460_Power:e&#45;&#45;PWR_DIST:w</title>
<path fill="none" stroke="#000000" stroke-width="2" d="M562.88,-209.5C634.25,-211.1 644.04,-259.1 711.5,-257.5"/>
<path fill="none" stroke="#ff0000" stroke-width="2" d="M562.88,-211.5C632.29,-211.5 642.08,-259.5 711.5,-259.5"/>
<path fill="none" stroke="#000000" stroke-width="2" d="M562.88,-213.5C630.33,-211.9 640.13,-259.9 711.5,-261.5"/>
</g>
<!-- GDU460_Power&#45;&#45;GND_BLOCK -->
<g id="edge4" class="edge">
<title>GDU460_Power:e&#45;&#45;GND_BLOCK:w</title>
<path fill="none" stroke="#000000" stroke-width="2" d="M562.88,-183.75C627.97,-184.59 643.14,-163.34 711.5,-162.5"/>
<path fill="none" stroke="#000000" stroke-width="2" d="M562.88,-185.75C629.6,-185.75 644.77,-164.5 711.5,-164.5"/>
<path fill="none" stroke="#000000" stroke-width="2" d="M562.88,-187.75C631.23,-186.91 646.4,-165.66 711.5,-166.5"/>
</g>
<!-- GDU460_CAN&#45;&#45;CAN_BUS -->
<g id="edge6" class="edge">
<title>GDU460_CAN:e&#45;&#45;CAN_BUS:w</title>
<path fill="none" stroke="#000000" stroke-width="2" d="M567.5,-46.5C631.48,-46.5 647.48,-46.38 711.5,-46.38"/>
<path fill="none" stroke="#ffffff" stroke-width="2" d="M567.5,-48.5C631.5,-48.5 647.5,-48.38 711.5,-48.38"/>
<path fill="none" stroke="#000000" stroke-width="2" d="M567.5,-50.5C631.52,-50.5 647.52,-50.37 711.5,-50.37"/>
</g>
<!-- GDU460_CAN&#45;&#45;CAN_BUS -->
<g id="edge8" class="edge">
<title>GDU460_CAN:e&#45;&#45;CAN_BUS:w</title>
<path fill="none" stroke="#000000" stroke-width="2" d="M567.5,-20.75C631.74,-20.76 647.73,-22.64 711.5,-22.63"/>
<path fill="none" stroke="#0066ff" stroke-width="2" d="M567.5,-22.75C631.51,-22.75 647.49,-24.63 711.5,-24.62"/>
<path fill="none" stroke="#000000" stroke-width="2" d="M567.5,-24.75C631.27,-24.74 647.26,-26.61 711.5,-26.62"/>
</g>
</g>
</svg>
